<svg width="16" height="16" viewBox="0 0 16 16" fill="none" xmlns="http://www.w3.org/2000/svg">
<path d="M13.5 3H0.5C0.223437 3 0 3.22344 0 3.5V13.5C0 13.7766 0.223437 14 0.5 14H13.5C13.7766 14 14 13.7766 14 13.5V3.5C14 3.22344 13.7766 3 13.5 3ZM12.875 4.73125V12.875H1.125V4.73125L0.69375 4.39531L1.30781 3.60625L1.97656 4.12656H12.025L12.6938 3.60625L13.3078 4.39531L12.875 4.73125ZM12.025 4.125L7 8.03125L1.975 4.125L1.30625 3.60469L0.692188 4.39375L1.12344 4.72969L6.46094 8.87969C6.61444 8.99894 6.80328 9.06367 6.99766 9.06367C7.19203 9.06367 7.38088 8.99894 7.53438 8.87969L12.875 4.73125L13.3062 4.39531L12.6922 3.60625L12.025 4.125Z" fill="black"/>
</svg>
