<svg width="67" height="67" viewBox="0 0 67 67" fill="none" xmlns="http://www.w3.org/2000/svg">
<circle cx="33.5" cy="33.5" r="33.5" fill="#0099FF"/>
<path d="M34.5 23.086C29.2905 23.086 25.0862 27.2903 25.0862 32.4998C25.0862 37.7093 29.2905 41.9136 34.5 41.9136C39.7095 41.9136 43.9138 37.7093 43.9138 32.4998C43.9138 27.2903 39.7095 23.086 34.5 23.086ZM34.5 38.6181C31.1311 38.6181 28.3817 35.8687 28.3817 32.4998C28.3817 29.1309 31.1311 26.3815 34.5 26.3815C37.869 26.3815 40.6183 29.1309 40.6183 32.4998C40.6183 35.8687 37.869 38.6181 34.5 38.6181ZM44.2993 20.5065C43.083 20.5065 42.1008 21.4888 42.1008 22.7051C42.1008 23.9214 43.083 24.9036 44.2993 24.9036C45.5156 24.9036 46.4979 23.926 46.4979 22.7051C46.4982 22.4163 46.4416 22.1302 46.3312 21.8633C46.2209 21.5964 46.059 21.3539 45.8547 21.1497C45.6505 20.9454 45.408 20.7835 45.1411 20.6732C44.8742 20.5628 44.5881 20.5062 44.2993 20.5065V20.5065ZM52.8502 32.4998C52.8502 29.9662 52.8732 27.4556 52.7309 24.9266C52.5886 21.9891 51.9185 19.382 49.7704 17.234C47.6178 15.0813 45.0153 14.4158 42.0778 14.2735C39.5442 14.1312 37.0336 14.1542 34.5046 14.1542C31.971 14.1542 29.4604 14.1312 26.9314 14.2735C23.9939 14.4158 21.3868 15.0859 19.2388 17.234C17.0861 19.3866 16.4206 21.9891 16.2783 24.9266C16.136 27.4602 16.159 29.9708 16.159 32.4998C16.159 35.0288 16.136 37.544 16.2783 40.073C16.4206 43.0105 17.0907 45.6176 19.2388 47.7656C21.3914 49.9183 23.9939 50.5838 26.9314 50.7261C29.4649 50.8684 31.9756 50.8454 34.5046 50.8454C37.0382 50.8454 39.5488 50.8684 42.0778 50.7261C45.0153 50.5838 47.6224 49.9137 49.7704 47.7656C51.9231 45.613 52.5886 43.0105 52.7309 40.073C52.8777 37.544 52.8502 35.0334 52.8502 32.4998V32.4998ZM48.8111 43.3227C48.4761 44.158 48.0722 44.7822 47.425 45.4248C46.7778 46.072 46.1582 46.4759 45.3229 46.8109C42.9086 47.7702 37.1759 47.5545 34.5 47.5545C31.8241 47.5545 26.0868 47.7702 23.6726 46.8155C22.8372 46.4805 22.213 46.0766 21.5704 45.4294C20.9232 44.7822 20.5193 44.1626 20.1843 43.3272C19.2296 40.9084 19.4453 35.1757 19.4453 32.4998C19.4453 29.8239 19.2296 24.0866 20.1843 21.6724C20.5193 20.837 20.9232 20.2128 21.5704 19.5702C22.2176 18.9276 22.8372 18.5191 23.6726 18.1841C26.0868 17.2294 31.8241 17.4451 34.5 17.4451C37.1759 17.4451 42.9132 17.2294 45.3274 18.1841C46.1628 18.5191 46.787 18.923 47.4296 19.5702C48.0768 20.2174 48.4807 20.837 48.8157 21.6724C49.7704 24.0866 49.5547 29.8239 49.5547 32.4998C49.5547 35.1757 49.7704 40.9084 48.8111 43.3227Z" fill="white"/>
</svg>
