<svg width="86" height="23" viewBox="0 0 86 23" fill="none" xmlns="http://www.w3.org/2000/svg">
<path d="M32.0215 5.184H36.3235C38.3755 5.184 39.9595 5.742 41.0755 6.858C42.2035 7.962 42.7675 9.534 42.7675 11.574C42.7675 13.626 42.2035 15.21 41.0755 16.326C39.9595 17.442 38.3755 18 36.3235 18H32.0215V5.184ZM36.2335 16.74C37.8895 16.74 39.1315 16.308 39.9595 15.444C40.7995 14.58 41.2195 13.29 41.2195 11.574C41.2195 8.154 39.5575 6.444 36.2335 6.444H33.4975V16.74H36.2335ZM52.8492 13.428H46.2072C46.2192 14.58 46.4832 15.45 46.9992 16.038C47.5272 16.626 48.2892 16.92 49.2852 16.92C50.3412 16.92 51.3132 16.566 52.2012 15.858L52.6872 16.92C52.2912 17.292 51.7812 17.586 51.1572 17.802C50.5452 18.018 49.9152 18.126 49.2672 18.126C47.8512 18.126 46.7412 17.712 45.9372 16.884C45.1332 16.044 44.7312 14.898 44.7312 13.446C44.7312 12.522 44.9112 11.706 45.2712 10.998C45.6312 10.278 46.1352 9.72 46.7832 9.324C47.4312 8.928 48.1692 8.73 48.9972 8.73C50.1972 8.73 51.1392 9.126 51.8232 9.918C52.5072 10.698 52.8492 11.778 52.8492 13.158V13.428ZM49.0152 9.864C48.2592 9.864 47.6412 10.092 47.1612 10.548C46.6932 11.004 46.3932 11.646 46.2612 12.474H51.5352C51.4632 11.622 51.2112 10.974 50.7792 10.53C50.3592 10.086 49.7712 9.864 49.0152 9.864ZM59.5802 8.73C61.7522 8.73 62.8382 9.924 62.8382 12.312V18H61.3802V12.384C61.3802 11.544 61.2122 10.932 60.8762 10.548C60.5402 10.152 60.0122 9.954 59.2922 9.954C58.4522 9.954 57.7802 10.212 57.2762 10.728C56.7722 11.244 56.5202 11.94 56.5202 12.816V18H55.0622V11.484C55.0622 10.548 55.0142 9.702 54.9182 8.946H56.3042L56.4482 10.566C56.7242 9.978 57.1382 9.528 57.6902 9.216C58.2422 8.892 58.8722 8.73 59.5802 8.73ZM67.5355 10.098V15.048C67.5355 15.72 67.6735 16.194 67.9495 16.47C68.2255 16.734 68.6155 16.866 69.1195 16.866C69.4555 16.866 69.7795 16.812 70.0915 16.704V17.946C69.7195 18.066 69.2995 18.126 68.8315 18.126C67.9675 18.126 67.2895 17.886 66.7975 17.406C66.3175 16.914 66.0775 16.194 66.0775 15.246V10.098H64.3135V8.946H66.0775V6.624L67.5355 6.102V8.946H70.1275V10.098H67.5355ZM79.8585 8.946V18H78.4185V16.362C78.1545 16.926 77.7525 17.364 77.2125 17.676C76.6845 17.976 76.0665 18.126 75.3585 18.126C74.5545 18.126 73.8465 17.934 73.2345 17.55C72.6345 17.166 72.1665 16.626 71.8305 15.93C71.5065 15.222 71.3445 14.4 71.3445 13.464C71.3445 12.528 71.5125 11.706 71.8485 10.998C72.1845 10.278 72.6525 9.72 73.2525 9.324C73.8645 8.928 74.5665 8.73 75.3585 8.73C76.0665 8.73 76.6845 8.886 77.2125 9.198C77.7405 9.51 78.1425 9.948 78.4185 10.512V8.946H79.8585ZM75.6465 16.92C76.5345 16.92 77.2185 16.62 77.6985 16.02C78.1785 15.408 78.4185 14.544 78.4185 13.428C78.4185 12.312 78.1785 11.454 77.6985 10.854C77.2185 10.254 76.5345 9.954 75.6465 9.954C74.7585 9.954 74.0625 10.266 73.5585 10.89C73.0665 11.502 72.8205 12.36 72.8205 13.464C72.8205 14.568 73.0665 15.42 73.5585 16.02C74.0505 16.62 74.7465 16.92 75.6465 16.92ZM82.6774 4.752H84.1354V18H82.6774V4.752Z" fill="black"/>
<path d="M5 1C2 1 0 4 0 7C0 9.11 1 12 2 13C3 14 4 21 6 21C10.54 21 8 14 10 14C12 14 9.46 21 14 21C16 21 17 14 18 13C19 12 20 9.11 20 7C20 4 18 1 15 1C12 1 12 2 10 2C8 2 8 1 5 1ZM5 3C7 3 8 4 10 4C12 4 13 3 15 3C16.67 3 18 5 18 7C18 8.75 17.14 11.11 16.19 12.06C15.33 12.92 14.06 18.94 13.5 18.94C13.29 18.94 13 17.88 13 16.59C13 14.55 12.43 12 10 12C7.57 12 7 14.55 7 16.59C7 17.88 6.71 18.94 6.5 18.94C5.94 18.94 4.67 12.92 3.81 12.06C2.86 11.11 2 8.75 2 7C2 5 3.33 3 5 3Z" fill="black"/>
</svg>
