<svg width="64" height="64" viewBox="0 0 64 64" fill="none" xmlns="http://www.w3.org/2000/svg">
<path d="M16 0C6.4 0 0 9.6 0 19.2C0 25.952 3.2 35.2 6.4 38.4C9.6 41.6 12.8 64 19.2 64C33.728 64 25.6 41.6 32 41.6C38.4 41.6 30.272 64 44.8 64C51.2 64 54.4 41.6 57.6 38.4C60.8 35.2 64 25.952 64 19.2C64 9.6 57.6 0 48 0C38.4 0 38.4 3.2 32 3.2C25.6 3.2 25.6 0 16 0ZM16 6.4C22.4 6.4 25.6 9.6 32 9.6C38.4 9.6 41.6 6.4 48 6.4C53.344 6.4 57.6 12.8 57.6 19.2C57.6 24.8 54.848 32.352 51.808 35.392C49.056 38.144 44.992 57.408 43.2 57.408C42.528 57.408 41.6 54.016 41.6 49.888C41.6 43.36 39.776 35.2 32 35.2C24.224 35.2 22.4 43.36 22.4 49.888C22.4 54.016 21.472 57.408 20.8 57.408C19.008 57.408 14.944 38.144 12.192 35.392C9.152 32.352 6.4 24.8 6.4 19.2C6.4 12.8 10.656 6.4 16 6.4Z" fill="white"/>
</svg>
