<svg width="67" height="67" viewBox="0 0 67 67" fill="none" xmlns="http://www.w3.org/2000/svg">
<circle cx="33.5" cy="33.5" r="33.5" fill="#0099FF"/>
<path fill-rule="evenodd" clip-rule="evenodd" d="M47.0392 20.0313C45.4106 18.392 43.4728 17.0921 41.3382 16.207C39.2036 15.3219 36.9146 14.8692 34.6038 14.8751C24.914 14.8751 17.0258 22.7613 17.0219 32.455C17.0219 35.5531 17.8307 38.5768 19.368 41.244L16.875 50.3522L26.1947 47.9063C28.7726 49.3096 31.6608 50.0454 34.596 50.0467H34.6038C44.2917 50.0467 52.1798 42.1605 52.1838 32.4668C52.1904 30.1569 51.7392 27.8686 50.8562 25.7341C49.9731 23.5997 48.6758 21.6614 47.0392 20.0313V20.0313ZM34.6038 47.0798H34.5979C31.9806 47.0801 29.4115 46.3759 27.1602 45.0412L26.6275 44.724L21.0972 46.1751L22.5718 40.7838L22.2252 40.2316C20.7619 37.902 19.9872 35.206 19.9907 32.455C19.9946 24.3984 26.5492 17.8439 34.6097 17.8439C36.5293 17.8396 38.4308 18.2161 40.2039 18.9516C41.9771 19.6871 43.5868 20.767 44.9399 22.1287C46.3002 23.484 47.3784 25.0954 48.1122 26.8698C48.8459 28.6443 49.2207 30.5466 49.2149 32.4668C49.211 40.5233 42.6565 47.0798 34.6038 47.0798ZM42.6193 36.1347C42.1786 35.9134 40.0205 34.852 39.6171 34.7051C39.2157 34.5583 38.9239 34.4858 38.6301 34.9245C38.3364 35.3631 37.4943 36.3521 37.2377 36.6458C36.9812 36.9396 36.7247 36.9748 36.286 36.7555C35.8473 36.5362 34.4315 36.0721 32.7532 34.5759C31.447 33.4107 30.5657 31.9733 30.3092 31.5326C30.0526 31.092 30.2817 30.8551 30.503 30.6357C30.7008 30.4399 30.9417 30.1226 31.161 29.8661C31.3804 29.6096 31.4528 29.4274 31.5997 29.1337C31.7466 28.8399 31.6741 28.5834 31.5625 28.3641C31.4528 28.1428 30.5735 25.9808 30.2073 25.1015C29.8529 24.2496 29.4906 24.3632 29.2203 24.3514C28.9404 24.34 28.6603 24.3348 28.3802 24.3358C28.1575 24.3414 27.9383 24.3931 27.7364 24.4874C27.5346 24.5818 27.3544 24.7168 27.2072 24.8841C26.8038 25.3247 25.6699 26.3861 25.6699 28.5481C25.6699 30.7101 27.2444 32.7997 27.4637 33.0934C27.683 33.3872 30.5618 37.8228 34.968 39.7263C36.0177 40.1787 36.8363 40.4489 37.4727 40.6526C38.5244 40.9875 39.482 40.9385 40.2399 40.8269C41.0839 40.7016 42.8386 39.7655 43.2048 38.7393C43.571 37.7131 43.571 36.8338 43.4613 36.6498C43.3517 36.4657 43.056 36.3541 42.6193 36.1347" fill="white"/>
</svg>
